name symmetric_stride_kinematics_IKTD_Plus_6.mot
datacolumns 38
datarows 13
range 1.04413847 1.05666813
endheader
                time	/jointset/ground_pelvis/pelvis_tilt/value	/jointset/ground_pelvis/pelvis_list/value	/jointset/ground_pelvis/pelvis_rotation/value	/jointset/ground_pelvis/pelvis_tx/value	/jointset/ground_pelvis/pelvis_ty/value	/jointset/ground_pelvis/pelvis_tz/value	/jointset/hip_r/hip_flexion_r/value	/jointset/hip_r/hip_adduction_r/value	/jointset/hip_r/hip_rotation_r/value	/jointset/knee_r/knee_angle_r/value	/jointset/ankle_r/ankle_angle_r/value	/jointset/subtalar_r/subtalar_angle_r/value	/jointset/mtp_r/mtp_angle_r/value	/jointset/hip_l/hip_flexion_l/value	/jointset/hip_l/hip_adduction_l/value	/jointset/hip_l/hip_rotation_l/value	/jointset/knee_l/knee_angle_l/value	/jointset/ankle_l/ankle_angle_l/value	/jointset/subtalar_l/subtalar_angle_l/value	/jointset/mtp_l/mtp_angle_l/value	/jointset/back/lumbar_extension/value	/jointset/back/lumbar_bending/value	/jointset/back/lumbar_rotation/value	/jointset/acromial_r/arm_flex_r/value	/jointset/acromial_r/arm_add_r/value	/jointset/acromial_r/arm_rot_r/value	/jointset/elbow_r/elbow_flex_r/value	/jointset/radioulnar_r/pro_sup_r/value	/jointset/radius_hand_r/wrist_flex_r/value	/jointset/radius_hand_r/wrist_dev_r/value	/jointset/acromial_l/arm_flex_l/value	/jointset/acromial_l/arm_add_l/value	/jointset/acromial_l/arm_rot_l/value	/jointset/elbow_l/elbow_flex_l/value	/jointset/radioulnar_l/pro_sup_l/value	/jointset/radius_hand_l/wrist_flex_l/value	/jointset/radius_hand_l/wrist_dev_l/value	
          1.04413847	         -7.16757923	          2.90528059	          2.87107591	         12.35000012	          0.99844384	          0.30260415	         17.80455204	        -12.60977361	         -5.91836040	       -118.53295323	         -7.98893794	        -19.44417947	         -3.54916142	         33.94053489	          2.79801391	         -0.03749479	        -17.52411969	        -21.52925997	        -16.94872788	          0.25803071	        -18.18397205	         -6.77567918	          6.17667472	         -0.45028215	        -24.62271657	        -14.53666275	         73.51448897	         70.11283964	        -18.37224691	          5.09642475	         -6.09382090	        -26.20498196	        -14.99348043	         88.86583749	         76.99065012	        -23.37888704	          5.09523489	
          1.04478605	         -7.27345003	          2.83915464	          3.20868808	         12.35774930	          0.99796127	          0.30285164	         18.22118260	        -12.62881533	         -6.14792308	       -118.91339230	         -7.77172189	        -19.53188306	         -3.50258132	         33.67196140	          2.87636725	         -0.09497517	        -17.36513155	        -21.02208493	        -16.40644502	          0.49232724	        -18.04087077	         -6.68043441	          5.97619278	         -1.12396799	        -24.44369592	        -14.50132154	         73.28284990	         70.09165223	        -18.48658850	          5.11209103	         -5.13463807	        -26.18303975	        -14.98492912	         89.09745765	         77.28348436	        -23.28407844	          5.08785548	
          1.04683213	         -7.60906792	          2.61035859	          4.28468620	         12.38223707	          0.99634745	          0.30362240	         19.55456607	        -12.69127548	         -6.87423030	       -120.10365327	         -7.10048487	        -19.81387863	         -3.54016739	         32.81955138	          3.10181826	         -0.18577834	        -16.89846422	        -19.30593542	        -14.87255553	          1.14289588	        -17.57610886	         -6.36890023	          5.32003586	         -3.22956761	        -23.82108539	        -14.42191238	         72.62447418	         69.93196200	        -18.84215031	          5.11633165	         -2.09402334	        -26.08969740	        -14.93520710	         89.80128075	         78.34486708	        -22.97230915	          5.10679649	
          1.04831502	         -7.85133891	          2.42654993	          5.07007092	         12.39998957	          0.99509656	          0.30416579	         20.53615083	        -12.73923325	         -7.39846029	       -120.95449313	         -6.62932226	        -20.02524594	         -3.73974861	         32.19669424	          3.24145087	         -0.16665519	        -16.60107830	        -17.97980692	        -13.93792230	          1.63634883	        -17.22894424	         -6.13521609	          4.82450925	         -4.73480842	        -23.32355985	        -14.38494713	         72.21407030	         69.78297564	        -19.09904746	          5.09635794	          0.11326210	        -26.00301804	        -14.87549383	         90.29069654	         79.18855771	        -22.74105656	          5.13420325	
          1.04831502	         -7.85133891	          2.42654993	          5.07007092	         12.39998957	          0.99509656	          0.30416579	         20.53615083	        -12.73923325	         -7.39846029	       -120.95449313	         -6.62932226	        -20.02524594	         -3.73974861	         32.19669424	          3.24145087	         -0.16665519	        -16.60107830	        -17.97980692	        -13.93792230	          1.63634883	        -17.22894424	         -6.13521609	          4.82450925	         -4.73480842	        -23.32355985	        -14.38494713	         72.21407030	         69.78297564	        -19.09904746	          5.09635794	          0.11326210	        -26.00301804	        -14.87549383	         90.29069654	         79.18855771	        -22.74105656	          5.13420325	
          1.04896260	         -7.95570558	          2.34172088	          5.41362463	         12.40774401	          0.99453079	          0.30439787	         20.96780049	        -12.76083127	         -7.62605226	       -121.32265231	         -6.42777518	        -20.11989832	         -3.86820694	         31.92228830	          3.29528996	         -0.13655252	        -16.48413222	        -17.38291400	        -13.57522842	          1.88611994	        -17.07582983	         -6.03147751	          4.60335244	         -5.38695583	        -23.09639116	        -14.37120319	         72.05220159	         69.72534620	        -19.21192350	          5.08785278	          1.07685611	        -25.96124150	        -14.84225946	         90.50077516	         79.55774248	        -22.64094358	          5.14431128	
          1.05100869	         -8.28080027	          2.05589037	          6.49765528	         12.43225474	          0.99266308	          0.30510480	         22.34650750	        -12.83154142	         -8.33597446	       -122.47208073	         -5.81514371	        -20.43263938	         -4.25569575	         31.04784360	          3.43263549	          0.03968459	        -16.17787666	        -15.39794950	        -12.55290852	          2.85454508	        -16.58395177	         -5.69898839	          3.88602002	         -7.42843948	        -22.35328934	        -14.30985990	         71.61407516	         69.60482044	        -19.57012686	          5.09701403	          4.11042527	        -25.81199560	        -14.72566171	         91.16190429	         80.69112259	        -22.33460167	          5.16589706	
          1.05249158	         -8.50907870	          1.83579966	          7.27844974	         12.45002963	          0.99124176	          0.30558781	         23.35780969	        -12.88778051	         -8.83674586	       -123.29160050	         -5.39025232	        -20.66694309	         -4.46373207	         30.40470596	          3.50031010	          0.22967507	        -16.03207610	        -13.87899381	        -11.91388526	          3.72660267	        -16.22362096	         -5.45818643	          3.34942288	         -8.89209613	        -21.80327955	        -14.22125614	         71.36615485	         69.58712304	        -19.82770923	          5.12158584	          6.29479170	        -25.69425187	        -14.62479581	         91.64434076	         81.50143965	        -22.12083039	          5.16797369	
          1.05249158	         -8.50907870	          1.83579966	          7.27844974	         12.45002963	          0.99124176	          0.30558781	         23.35780969	        -12.88778051	         -8.83674586	       -123.29160050	         -5.39025232	        -20.66694309	         -4.46373207	         30.40470596	          3.50031010	          0.22967507	        -16.03207610	        -13.87899381	        -11.91388526	          3.72660267	        -16.22362096	         -5.45818643	          3.34942288	         -8.89209613	        -21.80327955	        -14.22125614	         71.36615485	         69.58712304	        -19.82770923	          5.12158584	          6.29479170	        -25.69425187	        -14.62479581	         91.64434076	         81.50143965	        -22.12083039	          5.16797369	
          1.05313915	         -8.60610718	          1.73722101	          7.61720027	         12.45779504	          0.99060548	          0.30579004	         23.80217748	        -12.91422387	         -9.05048664	       -123.64579480	         -5.20878779	        -20.76993742	         -4.52308529	         30.12080544	          3.52124911	          0.32586053	        -15.99230407	        -13.19494397	        -11.65691752	          4.14573437	        -16.06625033	         -5.35412609	          3.11114064	         -9.52806043	        -21.56283918	        -14.16580296	         71.27749077	         69.58349338	        -19.93894261	          5.13301182	          7.24419469	        -25.64169247	        -14.57510364	         91.85702887	         81.86306889	        -22.02901097	          5.16362714	
          1.05518524	         -8.88606715	          1.42118209	          8.67407009	         12.48234746	          0.98856323	          0.30638764	         25.19942483	        -13.00604107	         -9.70086651	       -124.74758234	         -4.63536642	        -21.08421095	         -4.67107762	         29.19503985	          3.55085963	          0.65648820	        -15.98682460	        -10.93861395	        -10.92572972	          5.47059781	        -15.58822283	         -5.03381891	          2.34467163	        -11.51800422	        -20.82087686	        -13.88098266	         71.06176918	         69.61528291	        -20.29603291	          5.21390670	         10.22720618	        -25.48727269	        -14.37053356	         92.54607194	         82.93457180	        -21.74933406	          5.14593992	
          1.05666813	         -9.05869902	          1.19064409	          9.42309825	         12.50015689	          0.98706985	          0.30677798	         26.20172922	        -13.07923917	        -10.14354743	       -125.52825619	         -4.21600118	        -21.29658623	         -4.76827435	         28.49144520	          3.53578102	          0.91163961	        -16.10300916	         -9.20905504	        -10.45802510	          6.42996210	        -15.26733996	         -4.81115501	          1.77930341	        -12.94104052	        -20.30972806	        -13.55272512	         70.96093529	         69.72767450	        -20.55621771	          5.29823775	         12.37139631	        -25.38582230	        -14.18620175	         93.06530956	         83.66459751	        -21.55432394	          5.11725247	
          1.05666813	         -9.05869902	          1.19064409	          9.42309825	         12.50015689	          0.98706985	          0.30677798	         26.20172922	        -13.07923917	        -10.14354743	       -125.52825619	         -4.21600118	        -21.29658623	         -4.76827435	         28.49144520	          3.53578102	          0.91163961	        -16.10300916	         -9.20905504	        -10.45802510	          6.42996210	        -15.26733996	         -4.81115501	          1.77930341	        -12.94104052	        -20.30972806	        -13.55272512	         70.96093529	         69.72767450	        -20.55621771	          5.29823775	         12.37139631	        -25.38582230	        -14.18620175	         93.06530956	         83.66459751	        -21.55432394	          5.11725247	
